<?xml version="1.0" encoding="utf-8"?>
<!-- Generator: Adobe Illustrator 16.0.0, SVG Export Plug-In . SVG Version: 6.00 Build 0)  -->
<!DOCTYPE svg PUBLIC "-//W3C//DTD SVG 1.1//EN" "http://www.w3.org/Graphics/SVG/1.1/DTD/svg11.dtd">
<svg version="1.1" id="Layer_1" xmlns="http://www.w3.org/2000/svg" xmlns:xlink="http://www.w3.org/1999/xlink" x="0px" y="0px"
	 width="500px" height="500px" viewBox="0 0 500 500" enable-background="new 0 0 500 500" xml:space="preserve">
<pattern  x="-421" y="-157" width="71.75" height="71.75" patternUnits="userSpaceOnUse" id="vintage" viewBox="0 -71.75 71.75 71.75" overflow="visible">
	<g>
		<polygon fill="none" points="0,-71.75 71.75,-71.75 71.75,0 0,0 		"/>
		<path fill="#861719" d="M41.641-68.62c-0.284,0.193-0.397-0.054-0.473-0.279c-0.419-1.198-2.181-1.311-3.233-0.655
			c-0.585,0.354-1.37,1.268-1.772,2.546c-0.113,1.005-0.183,1.923-0.183,2.739c0.177,1.568,0.72,3.126,1.563,4.549
			c0.134,0.221,0.284,0.258,0.301-0.043c0.134-2.191,1.676-3.582,2.787-3.813c0.559-0.124,0.586-0.146,0.376,0.332
			c-1.826,4.346,0.473,8.471,3.856,8.98c4.303,0.64,6.193-2.771,5.71-6.74c-0.043-0.312-0.129-0.462,0.365-0.473
			c0.602-0.016,1.687,0.264,2.073,0.806c0.183,0.269,0.279,0.026,0.322-0.36c0.107-0.848-0.011-2.105-0.483-3.146
			c-0.064-0.146-0.075-0.371,0.301-0.162c1.45,0.807,2.331,2.767,2.127,5.061c-0.032,0.258,0.054,0.585,0.312,0.139
			c1.622-2.803,1.074-7.1-0.634-8.346c-0.204-0.15-0.322-0.027-0.376,0.096c-0.537,1.22-2.063,2.578-3.771,2.423
			c-2.073-0.188-3.48-1.977-3.293-4.05c0.111-1.184,0.66-2.099,1.418-2.732h-7.296C42.533-70.759,42.642-69.29,41.641-68.62z"/>
		<path fill="#861719" d="M30.114-3.13c0.284-0.193,0.397,0.054,0.473,0.279c0.419,1.203,2.181,1.311,3.233,0.655
			c0.586-0.354,1.369-1.268,1.772-2.546c0.118-0.999,0.183-1.923,0.183-2.739c-0.178-1.568-0.72-3.126-1.563-4.544
			c-0.135-0.226-0.285-0.258-0.301,0.043c-0.135,2.191-1.676,3.577-2.788,3.813c-0.559,0.118-0.585,0.14-0.382-0.333
			c1.832-4.351-0.461-8.465-3.851-8.98c-4.308-0.645-6.198,2.771-5.71,6.735c0.038,0.312,0.124,0.462-0.359,0.473
			c-0.607,0.021-1.697-0.258-2.078-0.806c-0.184-0.269-0.279-0.021-0.322,0.365c-0.103,0.849,0.016,2.105,0.478,3.147
			c0.069,0.14,0.081,0.365-0.29,0.161c-1.455-0.806-2.342-2.771-2.127-5.06c0.027-0.258-0.059-0.591-0.312-0.14
			c-1.628,2.804-1.079,7.101,0.634,8.347c0.204,0.15,0.312,0.021,0.371-0.097c0.537-1.225,2.057-2.578,3.77-2.428
			c2.068,0.193,3.48,1.977,3.293,4.05C24.132-1.549,23.579-0.634,22.82,0h7.295C29.222-0.981,29.114-2.449,30.114-3.13z"/>
		<path fill="#861719" d="M54.314-71.75H71.75v17.858c-0.272,0.501-0.507,1.03-0.627,1.626c-0.199,1.048,0.043,2.123,0.627,2.995
			v7.891c-0.759,0.877-1.091,2.307-0.165,4.138c0.086,0.166,0.118,0.279,0.129,0.371c-0.14-0.021-0.269-0.038-0.397-0.06
			c0.129,0.032,0.269,0.081,0.397,0.124c-0.011,0.23-0.279,0.155-0.548-0.027c-3.62-2.422-3.846-5.699-3.04-8.207
			c0.226-0.73,1.149-2.25,1.268-3.293c0.226-1.917-1.182-3.502-2.976-3.668c-1.998-0.183-3.566,1.369-3.695,3.319
			c-0.172,2.385,0.516,4.608,2.041,7.224c0.161,0.264,0.075,0.377-0.14,0.279c-1.085-0.467-2.621-1.863-3.813-3.206l-0.483-0.554
			c-0.773-0.939-2.363-2.733-3.158-3.297c-2.245-1.585-4.018-1.091-4.737,0.043c-0.709,1.133-0.376,2.643,0.773,3.335
			c0.43,0.263,0.978,0.419,0.279,0.773c-0.838,0.425-1.805,1.38-2.181,2.535c-0.537,0.193-1.139,0.241-1.869,0.064
			c-1.735-0.43-2.857-1.891-2.503-3.056c0.273-1.215,0.806-1.306,1.203-1.139c0.387,0.123,0.204,0.461,0.011,0.74
			c-0.403,0.5-0.103,1.488,0.859,1.752c0.956,0.198,1.751-0.188,2.03-1.408c0.279-1.148-0.569-2.164-1.611-2.476
			c-1.149-0.284-2.756,0.365-3.212,2.288c-0.468,1.863,1.021,3.685,2.954,4.205c1.869,0.5,2.943-0.225,3.91-1.219
			c2.729-1.128,6.413-0.51,8.497,0.827c1.88,1.214,4.071,2.638,6.478,3.851c-0.193-0.026-0.387-0.074-0.591-0.091
			c-0.322-0.032-0.634-0.038-0.956-0.043c-0.795-0.397-1.493-0.763-1.966-1.01c-6.703-3.485-9.636-2.745-11.204-1.536
			c-1.074,0.844-1.257,2.406-0.419,3.48c0.849,1.074,2.406,1.262,3.48,0.424c0.795-0.628,1.139-1.643,0.881-2.551
			c-0.075-0.242-0.236-0.451,0.333-0.505c1.149-0.118,3.309,0.124,4.222,0.597c0.312,0.172,0.269,0.23-0.032,0.375
			c-1.01,0.457-1.396,1.273-1.321,2.004c-3.932,1.864-6.832,5.564-7.24,10.028c-0.569,6.059,3.899,11.44,9.969,11.999
			c3.453,0.336,6.904-0.897,8.544-3.489V0H53.894c-0.494-0.272-1.022-0.507-1.623-0.627C51.223-0.837,50.147-0.585,49.274,0h-7.89
			c-0.877-0.759-2.306-1.091-4.138-0.165c-0.166,0.086-0.284,0.118-0.376,0.129c0.021-0.14,0.043-0.269,0.064-0.408
			c-0.032,0.14-0.086,0.279-0.123,0.408c-0.231-0.011-0.156-0.279,0.026-0.548c2.423-3.62,5.704-3.846,8.207-3.04
			c0.73,0.226,2.251,1.149,3.293,1.268c1.923,0.226,3.502-1.182,3.663-2.976c0.183-1.998-1.364-3.566-3.309-3.706
			c-2.391-0.161-4.614,0.526-7.229,2.052c-0.264,0.15-0.376,0.075-0.279-0.15c0.467-1.074,1.863-2.61,3.206-3.803l0.554-0.483
			c0.939-0.773,2.733-2.363,3.298-3.158c1.579-2.245,1.096-4.028-0.043-4.737c-1.134-0.709-2.648-0.376-3.336,0.773
			c-0.269,0.43-0.419,0.978-0.773,0.279c-0.424-0.838-1.38-1.805-2.535-2.191c-0.193-0.526-0.241-1.128-0.064-1.858
			c0.43-1.735,1.886-2.857,3.057-2.503c1.214,0.273,1.305,0.806,1.133,1.203c-0.118,0.387-0.456,0.204-0.735,0.011
			c-0.5-0.403-1.488-0.103-1.751,0.859c-0.199,0.956,0.188,1.751,1.401,2.02c1.149,0.29,2.17-0.559,2.477-1.601
			c0.29-1.149-0.36-2.761-2.283-3.212c-1.863-0.468-3.685,1.021-4.205,2.954c-0.5,1.869,0.23,2.943,1.219,3.91
			c1.128,2.718,0.516,6.413-0.827,8.497c-1.214,1.88-2.637,4.071-3.846,6.478c0.021-0.193,0.07-0.397,0.086-0.591
			c0.032-0.322,0.038-0.634,0.043-0.956c0.397-0.795,0.763-1.493,1.016-1.966c3.48-6.703,2.733-9.646,1.525-11.204
			c-0.838-1.074-2.401-1.257-3.476-0.419c-1.074,0.849-1.263,2.406-0.425,3.48c0.629,0.795,1.645,1.139,2.552,0.881
			c0.242-0.075,0.446-0.236,0.505,0.333c0.118,1.139-0.123,3.309-0.602,4.222c-0.166,0.312-0.23,0.269-0.376-0.043
			c-0.451-0.999-1.268-1.386-2.003-1.311c-1.859-3.942-5.56-6.832-10.023-7.24c-6.063-0.569-11.439,3.889-12.004,9.969
			C13.617-5.091,14.845-1.64,17.441,0H0v-17.857c0.272-0.499,0.507-1.021,0.627-1.622c0.21-1.048-0.041-2.123-0.627-2.996v-7.889
			c0.763-0.877,1.097-2.311,0.165-4.139C0.125-34.587,0.06-34.656,0-34.716v-0.148c0.149,0.016,0.335,0.033,0.444,0.05
			C0.347-34.843,0.149-34.877,0-34.908v-0.154c0.151-0.04,0.407,0.026,0.584,0.151c3.62,2.423,3.846,5.699,3.051,8.207
			c-0.236,0.73-1.149,2.251-1.268,3.282c-0.23,1.934,1.176,3.513,2.976,3.674c1.993,0.183,3.556-1.364,3.695-3.309
			c0.167-2.391-0.521-4.614-2.041-7.229c-0.161-0.269-0.081-0.376,0.14-0.279c1.074,0.467,2.578,1.848,3.775,3.185l0.511,0.575
			c0.005,0,0.005,0,0.005,0c0.773,0.939,2.363,2.733,3.158,3.298c2.251,1.579,4.023,1.085,4.738-0.043
			c0.709-1.134,0.375-2.648-0.773-3.336c-0.436-0.269-0.973-0.424-0.279-0.773c0.838-0.424,1.799-1.38,2.186-2.535
			c0.531-0.193,1.139-0.241,1.869-0.064c1.729,0.43,2.852,1.886,2.498,3.051c-0.274,1.22-0.807,1.311-1.203,1.139
			c-0.387-0.118-0.21-0.456-0.012-0.735c0.403-0.5,0.103-1.488-0.864-1.751c-0.95-0.199-1.745,0.188-2.02,1.401
			c-0.284,1.149,0.563,2.17,1.601,2.477c1.16,0.29,2.761-0.36,3.217-2.283c0.468-1.863-1.02-3.685-2.953-4.205
			c-1.864-0.5-2.949,0.23-3.91,1.219c-2.724,1.128-6.408,0.511-8.498-0.827c-1.885-1.214-4.076-2.637-6.477-3.846
			c0.198,0.021,0.392,0.07,0.59,0.086c0.317,0.032,0.635,0.038,0.951,0.043c0.795,0.397,1.493,0.763,1.971,1.01
			c6.698,3.48,9.642,2.739,11.199,1.531c1.08-0.838,1.262-2.401,0.424-3.476c-0.848-1.074-2.406-1.263-3.48-0.425
			c-0.789,0.629-1.139,1.639-0.881,2.552c0.076,0.242,0.236,0.446-0.327,0.505c-1.149,0.113-3.313-0.129-4.228-0.602
			c-0.316-0.166-0.273-0.23,0.038-0.376c1.005-0.451,1.386-1.268,1.315-2.003c3.938-1.859,6.827-5.56,7.24-10.023
			c0.57-6.063-3.894-11.445-9.963-12.004C5.091-58.133,1.64-56.905,0-54.313V-71.75h17.862c0.498,0.272,1.026,0.507,1.622,0.627
			c1.049,0.21,2.124-0.042,2.996-0.627h7.889c0.878,0.763,2.313,1.097,4.139,0.165c0.08-0.039,0.147-0.105,0.207-0.165h0.154
			c-0.017,0.149-0.033,0.335-0.05,0.444c0.024-0.102,0.058-0.297,0.092-0.444h0.156c0.04,0.149-0.026,0.403-0.151,0.584
			c-2.422,3.62-5.699,3.846-8.207,3.045c-0.73-0.23-2.25-1.148-3.287-1.268c-1.923-0.225-3.502,1.182-3.674,2.981
			c-0.178,1.993,1.369,3.556,3.319,3.695c2.385,0.167,4.608-0.521,7.224-2.041c0.27-0.161,0.377-0.081,0.279,0.14
			c-0.467,1.08-1.863,2.61-3.206,3.809l-0.554,0.478c-0.939,0.773-2.733,2.368-3.297,3.163c-1.585,2.251-1.091,4.023,0.043,4.732
			c1.133,0.715,2.647,0.381,3.335-0.768c0.269-0.436,0.419-0.979,0.773-0.279c0.425,0.838,1.38,1.799,2.535,2.186
			c0.193,0.531,0.241,1.133,0.064,1.869c-0.43,1.729-1.886,2.847-3.056,2.498c-1.215-0.274-1.306-0.807-1.139-1.203
			c0.123-0.387,0.461-0.21,0.74-0.012c0.5,0.403,1.488,0.103,1.752-0.864c0.198-0.95-0.188-1.745-1.408-2.02
			c-1.148-0.284-2.164,0.563-2.476,1.601c-0.284,1.154,0.365,2.761,2.288,3.217c1.863,0.468,3.685-1.02,4.205-2.953
			c0.5-1.864-0.225-2.949-1.219-3.916c-1.128-2.718-0.516-6.402,0.827-8.492c1.214-1.885,2.638-4.076,3.851-6.477
			c-0.026,0.193-0.074,0.392-0.091,0.59c-0.032,0.317-0.038,0.635-0.043,0.951c-0.397,0.795-0.763,1.493-1.01,1.971
			c-3.485,6.698-2.739,9.642-1.536,11.199c0.844,1.074,2.406,1.262,3.48,0.424c1.074-0.854,1.262-2.406,0.424-3.485
			c-0.628-0.784-1.643-1.134-2.551-0.876c-0.242,0.07-0.445,0.236-0.505-0.327c-0.118-1.149,0.124-3.313,0.597-4.228
			c0.172-0.316,0.236-0.273,0.375,0.038c0.457,1.005,1.273,1.386,2.004,1.315c1.864,3.938,5.564,6.827,10.028,7.24
			c6.059,0.57,11.44-3.894,11.999-9.963C58.139-66.659,56.916-70.11,54.314-71.75z M19.527-70.666l0.489-0.021
			c-2.896-0.897-7.021-0.919-9.464,1.058C8.404-67.9,7.84-63.447,4.537-63.361c2.847-0.124,5.441-0.721,7.105-3.562
			c-0.209,0.511-0.553,2.138-1.02,2.647C15.999-64.018,13.619-68.384,19.527-70.666z M8.389-4.526
			c-0.124-2.847-0.721-5.446-3.557-7.111c0.511,0.204,2.133,0.559,2.643,1.021c0.258-5.371-4.108-2.997-6.391-8.905l-0.021-0.483
			c-0.893,2.89-0.919,7.015,1.058,9.453C3.85-8.394,8.303-7.835,8.389-4.526z M29.066-32.392c-0.709-0.569-1.38-1.01-2.266-1.177
			c0.628-0.639,0.924-1.381,1.182-2.25c-1.155-0.081-2.139-0.043-3.207,0.697c-1.053,0.731-1.434,1.628-1.762,2.719
			c0,0.005-0.011,0.011-0.011,0.011c0,0.005,0.005,0.005,0.005,0.011c0,0.005-0.005,0.016-0.005,0.026c0.017,0,0.032,0,0.048,0
			c0.881,0.704,1.709,1.22,2.981,1.22C27.332-31.135,28.164-31.667,29.066-32.392z M35.125-46.975
			c-0.73-1.053-1.627-1.434-2.717-1.762c-0.006-0.006-0.012-0.011-0.012-0.016c-0.005,0.005-0.005,0.005-0.01,0.01
			c-0.012-0.005-0.017-0.005-0.027-0.01c0,0.021,0,0.037,0,0.053c-0.703,0.881-1.219,1.709-1.219,2.981
			c0,1.3,0.531,2.132,1.256,3.034c0.57-0.709,1.01-1.38,1.177-2.266c0.64,0.623,1.38,0.924,2.245,1.182
			C35.898-44.923,35.861-45.906,35.125-46.975z M40.615-26.027c0-1.305-0.532-2.132-1.257-3.034
			c-0.569,0.709-1.005,1.38-1.177,2.261c-0.639-0.623-1.381-0.924-2.245-1.176c-0.081,1.154-0.048,2.138,0.692,3.206
			c0.731,1.053,1.628,1.435,2.719,1.757c0.005,0.011,0.011,0.011,0.011,0.021c0.005-0.011,0.005-0.011,0.011-0.011
			c0.005,0,0.016,0,0.026,0.011c0-0.021,0-0.032,0.006-0.054C40.104-23.933,40.615-24.754,40.615-26.027z M52.228-1.078
			l-0.483,0.021c2.89,0.892,7.015,0.913,9.464-1.063c2.148-1.729,2.707-6.177,6.016-6.263c-2.847,0.129-5.446,0.72-7.111,3.556
			c0.204-0.505,0.559-2.138,1.021-2.643C55.762-7.728,58.136-3.366,52.228-1.078z M45.723-40.609c-1.3,0-2.132,0.525-3.034,1.256
			c0.709,0.57,1.38,1.005,2.261,1.172c-0.623,0.639-0.924,1.38-1.176,2.25c1.154,0.08,2.143,0.043,3.206-0.693
			c1.053-0.73,1.435-1.633,1.757-2.717c0.011-0.006,0.011-0.012,0.021-0.012c-0.011-0.005-0.011-0.005-0.011-0.01
			c0-0.012,0-0.017,0.011-0.027c-0.021-0.006-0.032,0-0.054-0.006C47.817-40.1,46.996-40.609,45.723-40.609z M63.367-67.213
			c0.129,2.847,0.72,5.441,3.556,7.105c-0.505-0.209-2.138-0.559-2.643-1.025c-0.258,5.377,4.114,2.997,6.392,8.91l0.021,0.489
			c0.892-2.9,0.913-7.021-1.063-9.464C67.9-63.346,63.453-63.91,63.367-67.213z"/>
		<path fill="#861719" d="M68.62-30.109c-0.193-0.284,0.054-0.397,0.279-0.478c1.203-0.414,1.311-2.176,0.666-3.229
			C69.2-34.4,68.287-35.19,67.02-35.594c-1.01-0.112-1.934-0.177-2.75-0.182c-1.568,0.182-3.126,0.725-4.544,1.568
			c-0.226,0.134-0.258,0.284,0.043,0.301c2.191,0.129,3.588,1.676,3.813,2.787c0.118,0.559,0.14,0.586-0.333,0.376
			c-4.34-1.826-8.465,0.468-8.98,3.856c-0.634,4.303,2.771,6.193,6.746,5.71c0.301-0.043,0.451-0.129,0.462,0.365
			c0.021,0.602-0.258,1.687-0.806,2.073c-0.269,0.183-0.021,0.279,0.365,0.322c0.849,0.107,2.105-0.011,3.147-0.483
			c0.14-0.064,0.365-0.075,0.161,0.301c-0.806,1.45-2.771,2.331-5.06,2.127c-0.258-0.032-0.591,0.054-0.14,0.301
			c2.804,1.633,7.101,1.085,8.347-0.623c0.15-0.204,0.021-0.322-0.097-0.376c-1.214-0.537-2.578-2.063-2.428-3.771
			c0.193-2.073,1.977-3.486,4.061-3.298c1.174,0.111,2.089,0.664,2.722,1.423v-7.295C70.769-29.217,69.301-29.108,68.62-30.109z"/>
		<path fill="#861719" d="M3.13-41.636c0.193,0.284-0.054,0.397-0.279,0.473c-1.192,0.419-1.311,2.175-0.655,3.233
			c0.354,0.58,1.268,1.369,2.546,1.772c1.01,0.112,1.923,0.177,2.739,0.183c1.568-0.178,3.126-0.72,4.549-1.563
			c0.227-0.135,0.258-0.285-0.043-0.301c-2.191-0.135-3.582-1.676-3.813-2.793c-0.119-0.554-0.146-0.58,0.332-0.377
			c4.346,1.832,8.471-0.467,8.98-3.855c0.64-4.303-2.771-6.193-6.74-5.705c-0.312,0.038-0.462,0.124-0.473-0.359
			c-0.016-0.607,0.264-1.697,0.811-2.078c0.264-0.184,0.021-0.285-0.359-0.322c-0.854-0.103-2.111,0.01-3.152,0.478
			c-0.146,0.069-0.365,0.081-0.162-0.296c0.807-1.449,2.767-2.336,5.065-2.127c0.253,0.027,0.58-0.053,0.134-0.306
			c-2.798-1.628-7.1-1.085-8.346,0.628c-0.15,0.205-0.027,0.317,0.102,0.377c1.214,0.537,2.572,2.057,2.422,3.765
			c-0.193,2.073-1.981,3.485-4.055,3.298c-1.184-0.111-2.1-0.664-2.732-1.419v7.297C0.991-42.528,2.459-42.637,3.13-41.636z"/>
		<path fill="#C02026" d="M66.923-60.107c-0.505-0.209-2.138-0.559-2.643-1.025c-0.258,5.377,4.114,2.997,6.392,8.91l0.021,0.489
			c0.892-2.9,0.913-7.021-1.063-9.464c-1.729-2.148-6.177-2.713-6.263-6.016C63.496-64.366,64.087-61.771,66.923-60.107z"/>
		<path fill="#C02026" d="M0-34.908v0.044c0.149,0.016,0.335,0.033,0.444,0.05C0.347-34.843,0.149-34.877,0-34.908z"/>
		<path fill="#C02026" d="M4.832-11.638c0.511,0.204,2.133,0.559,2.643,1.021c0.258-5.371-4.108-2.997-6.391-8.905l-0.021-0.483
			c-0.893,2.89-0.919,7.015,1.058,9.453C3.85-8.394,8.303-7.835,8.389-4.526C8.265-7.373,7.668-9.973,4.832-11.638z"/>
		<path fill="#C02026" d="M27.982-35.818c-1.155-0.081-2.139-0.043-3.207,0.697c-1.053,0.731-1.434,1.628-1.762,2.719
			c0,0.005-0.011,0.011-0.011,0.011c0,0.005,0.005,0.005,0.005,0.011c0,0.005-0.005,0.016-0.005,0.026c0.017,0,0.032,0,0.048,0
			c0.881,0.704,1.709,1.22,2.981,1.22c1.3,0,2.132-0.532,3.034-1.257c-0.709-0.569-1.38-1.01-2.266-1.177
			C27.429-34.207,27.725-34.949,27.982-35.818z"/>
		<path fill="#C02026" d="M0.584-34.911c3.62,2.423,3.846,5.699,3.051,8.207c-0.236,0.73-1.149,2.251-1.268,3.282
			c-0.23,1.934,1.176,3.513,2.976,3.674c1.993,0.183,3.556-1.364,3.695-3.309c0.167-2.391-0.521-4.614-2.041-7.229
			c-0.161-0.269-0.081-0.376,0.14-0.279c1.074,0.467,2.578,1.848,3.775,3.185l0.511,0.575c0.005,0,0.005,0,0.005,0
			c0.773,0.939,2.363,2.733,3.158,3.298c2.251,1.579,4.023,1.085,4.738-0.043c0.709-1.134,0.375-2.648-0.773-3.336
			c-0.436-0.269-0.973-0.424-0.279-0.773c0.838-0.424,1.799-1.38,2.186-2.535c0.531-0.193,1.139-0.241,1.869-0.064
			c1.729,0.43,2.852,1.886,2.498,3.051c-0.274,1.22-0.807,1.311-1.203,1.139c-0.387-0.118-0.21-0.456-0.012-0.735
			c0.403-0.5,0.103-1.488-0.864-1.751c-0.95-0.199-1.745,0.188-2.02,1.401c-0.284,1.149,0.563,2.17,1.601,2.477
			c1.16,0.29,2.761-0.36,3.217-2.283c0.468-1.863-1.02-3.685-2.953-4.205c-1.864-0.5-2.949,0.23-3.91,1.219
			c-2.724,1.128-6.408,0.511-8.498-0.827c-1.885-1.214-4.076-2.637-6.477-3.846c0.198,0.021,0.392,0.07,0.59,0.086
			c0.317,0.032,0.635,0.038,0.951,0.043c0.795,0.397,1.493,0.763,1.971,1.01c6.698,3.48,9.642,2.739,11.199,1.531
			c1.08-0.838,1.262-2.401,0.424-3.476c-0.848-1.074-2.406-1.263-3.48-0.425c-0.789,0.629-1.139,1.639-0.881,2.552
			c0.076,0.242,0.236,0.446-0.327,0.505c-1.149,0.113-3.313-0.129-4.228-0.602c-0.316-0.166-0.273-0.23,0.038-0.376
			c1.005-0.451,1.386-1.268,1.315-2.003c3.938-1.859,6.827-5.56,7.24-10.023c0.57-6.063-3.894-11.445-9.963-12.004
			C5.091-58.133,1.64-56.905,0-54.313v5.383c0.633,0.755,1.549,1.308,2.732,1.419c2.073,0.188,3.861-1.225,4.055-3.298
			c0.15-1.708-1.208-3.228-2.422-3.765c-0.129-0.06-0.252-0.172-0.102-0.377c1.246-1.713,5.548-2.256,8.346-0.628
			c0.446,0.253,0.119,0.333-0.134,0.306c-2.299-0.209-4.259,0.678-5.065,2.127c-0.203,0.377,0.017,0.365,0.162,0.296
			c1.041-0.468,2.299-0.58,3.152-0.478c0.381,0.037,0.623,0.139,0.359,0.322c-0.547,0.381-0.826,1.471-0.811,2.078
			c0.011,0.483,0.161,0.397,0.473,0.359c3.969-0.488,7.38,1.402,6.74,5.705c-0.51,3.389-4.635,5.688-8.98,3.855
			c-0.478-0.203-0.451-0.177-0.332,0.377c0.23,1.117,1.621,2.658,3.813,2.793c0.301,0.016,0.27,0.166,0.043,0.301
			c-1.423,0.843-2.98,1.385-4.549,1.563c-0.816-0.006-1.729-0.07-2.739-0.183C3.463-36.561,2.55-37.35,2.195-37.93
			c-0.655-1.059-0.537-2.814,0.655-3.233c0.226-0.075,0.473-0.188,0.279-0.473C2.459-42.637,0.991-42.528,0-41.634v6.571
			C0.151-35.103,0.407-35.036,0.584-34.911z"/>
		<path fill="#C02026" d="M32.408-48.736c-0.006-0.006-0.012-0.011-0.012-0.016c-0.005,0.005-0.005,0.005-0.01,0.01
			c-0.012-0.005-0.017-0.005-0.027-0.01c0,0.021,0,0.037,0,0.053c-0.703,0.881-1.219,1.709-1.219,2.981
			c0,1.3,0.531,2.132,1.256,3.034c0.57-0.709,1.01-1.38,1.177-2.266c0.64,0.623,1.38,0.924,2.245,1.182
			c0.08-1.155,0.043-2.139-0.693-3.207C34.395-48.027,33.498-48.408,32.408-48.736z"/>
		<path fill="#C02026" d="M42.688-39.354c0.709,0.57,1.38,1.005,2.261,1.172c-0.623,0.639-0.924,1.38-1.176,2.25
			c1.154,0.08,2.143,0.043,3.206-0.693c1.053-0.73,1.435-1.633,1.757-2.717c0.011-0.006,0.011-0.012,0.021-0.012
			c-0.011-0.005-0.011-0.005-0.011-0.01c0-0.012,0-0.017,0.011-0.027c-0.021-0.006-0.032,0-0.054-0.006
			c-0.887-0.703-1.708-1.213-2.981-1.213C44.423-40.609,43.591-40.084,42.688-39.354z"/>
		<path fill="#C02026" d="M34.508-71.585c0.08-0.039,0.147-0.105,0.207-0.165h-4.346C31.247-70.987,32.682-70.653,34.508-71.585z"/>
		<path fill="#C02026" d="M61.208-2.12c2.148-1.729,2.707-6.177,6.016-6.263c-2.847,0.129-5.446,0.72-7.111,3.556
			c0.204-0.505,0.559-2.138,1.021-2.643c-5.371-0.258-2.997,4.104-8.905,6.392l-0.483,0.021C54.634-0.165,58.759-0.144,61.208-2.12z
			"/>
		<path fill="#C02026" d="M38.182-26.801c-0.639-0.623-1.381-0.924-2.245-1.176c-0.081,1.154-0.048,2.138,0.692,3.206
			c0.731,1.053,1.628,1.435,2.719,1.757c0.005,0.011,0.011,0.011,0.011,0.021c0.005-0.011,0.005-0.011,0.011-0.011
			c0.005,0,0.016,0,0.026,0.011c0-0.021,0-0.032,0.006-0.054c0.703-0.887,1.214-1.708,1.214-2.981c0-1.305-0.532-2.132-1.257-3.034
			C38.789-28.353,38.354-27.682,38.182-26.801z"/>
		<path fill="#C02026" d="M10.553-69.63C8.404-67.9,7.84-63.447,4.537-63.361c2.847-0.124,5.441-0.721,7.105-3.562
			c-0.209,0.511-0.553,2.138-1.02,2.647c5.376,0.258,2.996-4.108,8.904-6.391l0.489-0.021C17.121-71.585,12.996-71.606,10.553-69.63
			z"/>
		<path fill="#C02026" d="M71.75-49.271v-4.621c-0.272,0.501-0.507,1.03-0.627,1.626C70.924-51.218,71.166-50.143,71.75-49.271z"/>
		<path fill="#C02026" d="M37.247-0.165c-0.166,0.086-0.284,0.118-0.376,0.129c0.021-0.14,0.043-0.269,0.064-0.408
			c-0.032,0.14-0.086,0.279-0.123,0.408c-0.231-0.011-0.156-0.279,0.026-0.548c2.423-3.62,5.704-3.846,8.207-3.04
			c0.73,0.226,2.251,1.149,3.293,1.268c1.923,0.226,3.502-1.182,3.663-2.976c0.183-1.998-1.364-3.566-3.309-3.706
			c-2.391-0.161-4.614,0.526-7.229,2.052c-0.264,0.15-0.376,0.075-0.279-0.15c0.467-1.074,1.863-2.61,3.206-3.803l0.554-0.483
			c0.939-0.773,2.733-2.363,3.298-3.158c1.579-2.245,1.096-4.028-0.043-4.737c-1.134-0.709-2.648-0.376-3.336,0.773
			c-0.269,0.43-0.419,0.978-0.773,0.279c-0.424-0.838-1.38-1.805-2.535-2.191c-0.193-0.526-0.241-1.128-0.064-1.858
			c0.43-1.735,1.886-2.857,3.057-2.503c1.214,0.273,1.305,0.806,1.133,1.203c-0.118,0.387-0.456,0.204-0.735,0.011
			c-0.5-0.403-1.488-0.103-1.751,0.859c-0.199,0.956,0.188,1.751,1.401,2.02c1.149,0.29,2.17-0.559,2.477-1.601
			c0.29-1.149-0.36-2.761-2.283-3.212c-1.863-0.468-3.685,1.021-4.205,2.954c-0.5,1.869,0.23,2.943,1.219,3.91
			c1.128,2.718,0.516,6.413-0.827,8.497c-1.214,1.88-2.637,4.071-3.846,6.478c0.021-0.193,0.07-0.397,0.086-0.591
			c0.032-0.322,0.038-0.634,0.043-0.956c0.397-0.795,0.763-1.493,1.016-1.966c3.48-6.703,2.733-9.646,1.525-11.204
			c-0.838-1.074-2.401-1.257-3.476-0.419c-1.074,0.849-1.263,2.406-0.425,3.48c0.629,0.795,1.645,1.139,2.552,0.881
			c0.242-0.075,0.446-0.236,0.505,0.333c0.118,1.139-0.123,3.309-0.602,4.222c-0.166,0.312-0.23,0.269-0.376-0.043
			c-0.451-0.999-1.268-1.386-2.003-1.311c-1.859-3.942-5.56-6.832-10.023-7.24c-6.063-0.569-11.439,3.889-12.004,9.969
			C13.617-5.091,14.845-1.64,17.441,0h5.379c0.759-0.634,1.312-1.549,1.418-2.732c0.188-2.073-1.225-3.856-3.293-4.05
			c-1.713-0.15-3.232,1.203-3.77,2.428c-0.06,0.118-0.167,0.247-0.371,0.097c-1.713-1.246-2.262-5.543-0.634-8.347
			c0.253-0.451,0.339-0.118,0.312,0.14c-0.215,2.288,0.672,4.254,2.127,5.06c0.371,0.204,0.359-0.021,0.29-0.161
			c-0.462-1.042-0.58-2.299-0.478-3.147c0.043-0.387,0.139-0.634,0.322-0.365c0.381,0.548,1.471,0.827,2.078,0.806
			c0.483-0.011,0.397-0.161,0.359-0.473c-0.488-3.964,1.402-7.38,5.71-6.735c3.39,0.516,5.683,4.63,3.851,8.98
			c-0.203,0.473-0.177,0.451,0.382,0.333c1.112-0.236,2.653-1.622,2.788-3.813c0.016-0.301,0.166-0.269,0.301-0.043
			c0.843,1.418,1.385,2.976,1.563,4.544c0,0.816-0.064,1.74-0.183,2.739c-0.403,1.278-1.187,2.191-1.772,2.546
			c-1.053,0.655-2.814,0.548-3.233-0.655c-0.075-0.226-0.188-0.473-0.473-0.279c-1,0.681-0.893,2.148,0.001,3.13h11.27
			C40.508-0.759,39.079-1.091,37.247-0.165z"/>
		<path fill="#C02026" d="M34.911-71.75h-0.042c-0.017,0.149-0.033,0.335-0.05,0.444C34.844-71.407,34.877-71.603,34.911-71.75z"/>
		<path fill="#C02026" d="M49.274,0h4.619c-0.494-0.272-1.022-0.507-1.623-0.627C51.223-0.837,50.147-0.585,49.274,0z"/>
		<path fill="#C02026" d="M71.585-37.242c0.086,0.166,0.118,0.279,0.129,0.371c-0.14-0.021-0.269-0.038-0.397-0.06
			c0.129,0.032,0.269,0.081,0.397,0.124c-0.011,0.23-0.279,0.155-0.548-0.027c-3.62-2.422-3.846-5.699-3.04-8.207
			c0.226-0.73,1.149-2.25,1.268-3.293c0.226-1.917-1.182-3.502-2.976-3.668c-1.998-0.183-3.566,1.369-3.695,3.319
			c-0.172,2.385,0.516,4.608,2.041,7.224c0.161,0.264,0.075,0.377-0.14,0.279c-1.085-0.467-2.621-1.863-3.813-3.206l-0.483-0.554
			c-0.773-0.939-2.363-2.733-3.158-3.297c-2.245-1.585-4.018-1.091-4.737,0.043c-0.709,1.133-0.376,2.643,0.773,3.335
			c0.43,0.263,0.978,0.419,0.279,0.773c-0.838,0.425-1.805,1.38-2.181,2.535c-0.537,0.193-1.139,0.241-1.869,0.064
			c-1.735-0.43-2.857-1.891-2.503-3.056c0.273-1.215,0.806-1.306,1.203-1.139c0.387,0.123,0.204,0.461,0.011,0.74
			c-0.403,0.5-0.103,1.488,0.859,1.752c0.956,0.198,1.751-0.188,2.03-1.408c0.279-1.148-0.569-2.164-1.611-2.476
			c-1.149-0.284-2.756,0.365-3.212,2.288c-0.468,1.863,1.021,3.685,2.954,4.205c1.869,0.5,2.943-0.225,3.91-1.219
			c2.729-1.128,6.413-0.51,8.497,0.827c1.88,1.214,4.071,2.638,6.478,3.851c-0.193-0.026-0.387-0.074-0.591-0.091
			c-0.322-0.032-0.634-0.038-0.956-0.043c-0.795-0.397-1.493-0.763-1.966-1.01c-6.703-3.485-9.636-2.745-11.204-1.536
			c-1.074,0.844-1.257,2.406-0.419,3.48c0.849,1.074,2.406,1.262,3.48,0.424c0.795-0.628,1.139-1.643,0.881-2.551
			c-0.075-0.242-0.236-0.451,0.333-0.505c1.149-0.118,3.309,0.124,4.222,0.597c0.312,0.172,0.269,0.23-0.032,0.375
			c-1.01,0.457-1.396,1.273-1.321,2.004c-3.932,1.864-6.832,5.564-7.24,10.028c-0.569,6.059,3.899,11.44,9.969,11.999
			c3.453,0.336,6.904-0.897,8.544-3.489v-5.379c-0.633-0.759-1.548-1.312-2.722-1.423c-2.084-0.188-3.867,1.225-4.061,3.298
			c-0.15,1.708,1.214,3.233,2.428,3.771c0.118,0.054,0.247,0.172,0.097,0.376c-1.246,1.708-5.543,2.256-8.347,0.623
			c-0.451-0.247-0.118-0.333,0.14-0.301c2.288,0.204,4.254-0.677,5.06-2.127c0.204-0.376-0.021-0.365-0.161-0.301
			c-1.042,0.473-2.299,0.591-3.147,0.483c-0.387-0.043-0.634-0.14-0.365-0.322c0.548-0.387,0.827-1.472,0.806-2.073
			c-0.011-0.494-0.161-0.408-0.462-0.365c-3.975,0.483-7.38-1.407-6.746-5.71c0.516-3.389,4.641-5.683,8.98-3.856
			c0.473,0.21,0.451,0.183,0.333-0.376c-0.226-1.111-1.622-2.658-3.813-2.787c-0.301-0.017-0.269-0.167-0.043-0.301
			c1.418-0.844,2.976-1.387,4.544-1.568c0.816,0.005,1.74,0.069,2.75,0.182c1.268,0.403,2.181,1.193,2.546,1.778
			c0.645,1.053,0.537,2.814-0.666,3.229c-0.226,0.08-0.473,0.193-0.279,0.478c0.681,1.001,2.148,0.893,3.13-0.001v-11.27
			C70.991-40.503,70.659-39.073,71.585-37.242z"/>
		<path fill="#C02026" d="M22.48-71.75h-4.618c0.498,0.272,1.026,0.507,1.622,0.627C20.533-70.913,21.608-71.165,22.48-71.75z"/>
		<path fill="#C02026" d="M34.916-71.166c-2.422,3.62-5.699,3.846-8.207,3.045c-0.73-0.23-2.25-1.148-3.287-1.268
			c-1.923-0.225-3.502,1.182-3.674,2.981c-0.178,1.993,1.369,3.556,3.319,3.695c2.385,0.167,4.608-0.521,7.224-2.041
			c0.27-0.161,0.377-0.081,0.279,0.14c-0.467,1.08-1.863,2.61-3.206,3.809l-0.554,0.478c-0.939,0.773-2.733,2.368-3.297,3.163
			c-1.585,2.251-1.091,4.023,0.043,4.732c1.133,0.715,2.647,0.381,3.335-0.768c0.269-0.436,0.419-0.979,0.773-0.279
			c0.425,0.838,1.38,1.799,2.535,2.186c0.193,0.531,0.241,1.133,0.064,1.869c-0.43,1.729-1.886,2.847-3.056,2.498
			c-1.215-0.274-1.306-0.807-1.139-1.203c0.123-0.387,0.461-0.21,0.74-0.012c0.5,0.403,1.488,0.103,1.752-0.864
			c0.198-0.95-0.188-1.745-1.408-2.02c-1.148-0.284-2.164,0.563-2.476,1.601c-0.284,1.154,0.365,2.761,2.288,3.217
			c1.863,0.468,3.685-1.02,4.205-2.953c0.5-1.864-0.225-2.949-1.219-3.916c-1.128-2.718-0.516-6.402,0.827-8.492
			c1.214-1.885,2.638-4.076,3.851-6.477c-0.026,0.193-0.074,0.392-0.091,0.59c-0.032,0.317-0.038,0.635-0.043,0.951
			c-0.397,0.795-0.763,1.493-1.01,1.971c-3.485,6.698-2.739,9.642-1.536,11.199c0.844,1.074,2.406,1.262,3.48,0.424
			c1.074-0.854,1.262-2.406,0.424-3.485c-0.628-0.784-1.643-1.134-2.551-0.876c-0.242,0.07-0.445,0.236-0.505-0.327
			c-0.118-1.149,0.124-3.313,0.597-4.228c0.172-0.316,0.236-0.273,0.375,0.038c0.457,1.005,1.273,1.386,2.004,1.315
			c1.864,3.938,5.564,6.827,10.028,7.24c6.059,0.57,11.44-3.894,11.999-9.963c0.336-3.464-0.887-6.915-3.488-8.555h-5.38
			c-0.758,0.634-1.307,1.549-1.418,2.732c-0.188,2.073,1.22,3.861,3.293,4.05c1.708,0.155,3.233-1.203,3.771-2.423
			c0.054-0.123,0.172-0.246,0.376-0.096c1.708,1.246,2.256,5.543,0.634,8.346c-0.258,0.446-0.344,0.119-0.312-0.139
			c0.204-2.294-0.677-4.254-2.127-5.061c-0.376-0.209-0.365,0.017-0.301,0.162c0.473,1.041,0.591,2.299,0.483,3.146
			c-0.043,0.387-0.14,0.629-0.322,0.36c-0.387-0.542-1.472-0.821-2.073-0.806c-0.494,0.011-0.408,0.161-0.365,0.473
			c0.483,3.969-1.407,7.38-5.71,6.74c-3.384-0.51-5.683-4.635-3.856-8.98c0.21-0.478,0.183-0.456-0.376-0.332
			c-1.111,0.23-2.653,1.621-2.787,3.813c-0.017,0.301-0.167,0.264-0.301,0.043c-0.844-1.423-1.387-2.98-1.563-4.549
			c0-0.816,0.069-1.734,0.183-2.739c0.402-1.278,1.188-2.191,1.772-2.546c1.053-0.655,2.814-0.543,3.233,0.655
			c0.075,0.226,0.188,0.473,0.473,0.279c1.001-0.67,0.893-2.139-0.002-3.13h-6.571C35.107-71.601,35.041-71.347,34.916-71.166z"/>
		<path fill="#C02026" d="M0.165-34.503C0.125-34.587,0.06-34.656,0-34.716v4.352C0.763-31.241,1.097-32.675,0.165-34.503z"/>
		<path fill="#C02026" d="M0-22.476v4.618c0.272-0.499,0.507-1.021,0.627-1.622C0.837-20.527,0.586-21.603,0-22.476z"/>
	</g>
</pattern>
<pattern  id="SVGID_1_" xlink:href="#vintage" patternTransform="matrix(1 0 0 1 -21.5 -52.5)">
</pattern>
<rect fill="url(#SVGID_1_)" width="500" height="500"/>
</svg>
