<svg version="1.1" id="Layer_1" xmlns="http://www.w3.org/2000/svg" xmlns:xlink="http://www.w3.org/1999/xlink" x="0px" y="0px" width="1366px" height="768px" viewBox="0 0 1366 768" enable-background="new 0 0 1366 768" xml:space="preserve" style="">
<g stroke="#ffd800" stroke-width="1">
	<path fill="url(#1)" d="M254.054-37.292c8.695,8.053,19.797,12.079,33.301,12.079c14.733,0,26.651-4.274,35.757-12.825
		c9.102-8.546,13.658-19.686,13.658-33.406s-4.296-24.307-12.891-31.764c-8.594-7.458-19.643-11.186-33.147-11.186
		c-14.733,0-26.703,4.078-35.911,12.228c-9.208,8.157-13.812,19.29-13.812,33.406C241.01-55.831,245.354-45.346,254.054-37.292z" class="CNDbaqQF_0"></path>
	<path fill="url(#1)" d="M1386.713,293.625c-11.049-0.194-19.489-0.991-25.322-2.384c-5.829-1.388-10.232-3.729-13.196-7.008
		c-2.969-3.282-4.862-8.001-5.68-14.168c-0.817-6.162-1.024-14.317-0.612-24.458l1.533-124.075
		c0.202-30.023-8.853-53.04-27.161-69.048c-18.317-16.003-45.886-24.009-82.717-24.009c-40.313,0-82.256,9.646-125.84,28.931
		l8.595,23.86c29.464-8.948,54.733-13.421,75.81-13.421c22.712,0,39.44,5.024,50.183,15.062
		c10.743,10.043,16.01,25.703,15.807,46.977l-0.307,22.37c-59.543,0-104.033,7.26-133.805,21.772c-11.687,5.698-21,12.689-28,20.961
		v-75.543c0-29.029-8.456-51.451-25.029-67.258c-16.576-15.808-39.374-23.71-68.223-23.71c-36.219,0-73.395,13.122-111.457,39.37
		c-16.573-26.248-43.545-39.37-80.783-39.37c-32.74,0-65.508,11.137-99.508,33.405V29.964l-4.563-2.385
		c-19.194,4.101-39.36,8.01-60.527,11.728l-0.296-2.482c-27.01,0.597-57.289,0.894-90.845,0.894c-9.62,0-23.223-1.388-40.818-4.175
		c-18.214-2.386-32.638-3.58-43.275-3.58c-40.514,0-72.692,9.447-96.527,28.335c-23.839,18.895-35.757,43.845-35.757,74.864
		c0,34.999,15.549,61.345,46.653,79.038c-26.551,30.928-41.682,55.829-45.417,74.714c-1.854-1.796-2.839-4.326-3.087-7.606
		c-0.413-9.343-0.54-25.846-0.54-49.511V117.354c0-31.018,0.54-60.248,1.766-87.688l-3.413-2.386
		c-31.644,6.613-67.566,13.021-107.697,19.22c0.266-1.14,0.515-2.268,0.785-3.414c-27.421-9.74-58.119-14.614-92.082-14.614
		c-41.333,0-73.77,7.754-97.298,23.264C14.529,67.247,2.765,89.521,2.765,118.548c0,18.893,6.031,34.849,18.107,47.871
		c12.07,13.025,30.08,23.613,54.02,31.766l37.443,12.526c19.845,6.562,33.095,13.174,39.747,19.833
		c6.647,6.666,9.975,14.868,9.975,24.608c0,11.734-5.524,20.879-16.574,27.439c-11.049,6.561-25.474,9.842-43.275,9.842
		c-18.829,0-34.482-2.087-46.96-6.263l-22.1-65.02l-15.653,2.386c-4.503,25.053-10.234,50.905-17.188,77.549
		c33.149,13.719,66.911,20.581,101.286,20.581c41.127,0,74.324-8.106,99.597-24.312c25.269-16.201,37.905-38.92,37.905-68.151
		c0-18.491-6.752-34.645-20.256-48.467c-13.505-13.817-34.89-25.599-64.148-35.344l-49.108-16.703
		c-12.482-4.175-21.283-8.696-26.396-13.569c-5.117-4.871-7.673-11.783-7.673-20.728c0-11.733,5.879-20.778,17.648-27.145
		c11.764-6.361,26.956-9.543,45.578-9.543c14.934,0,28.851,1.489,41.743,4.474l18.416,57.265l16.879-2.386
		c2.954-15.989,6.353-32.652,10.176-49.958l25.66,6.413c0.815,21.875,1.386,45.833,1.386,71.88v96.039
		c0,18.297-0.365,31.317-0.772,39.072c-0.412,4.774-3.047,7.756-7.752,8.949l-39.02,10.438l1.515,14.317
		c29.667-0.598,59.735-0.895,90.227-0.895c16.839,0,33.746,0.105,50.716,0.294c5.082,7.768,13.88,14.131,26.401,19.092
		c-31.921,25.053-47.882,49.311-47.882,72.775c0,18.091,11.508,32.855,34.529,44.291c23.018,11.432,54.273,17.15,93.764,17.15
		c47.882,0,90.798-11.184,128.756-33.554c2.684-1.582,5.102-3.205,7.596-4.861c0.054,6.402-0.078,12.938-0.078,19.614v258.591
		c0,18.297-0.046,31.318-0.453,39.073c-0.414,4.773-2.889,7.755-7.594,8.948l-0.855,0.24l-1.921-14.854
		c-20.258,3.78-41.531,5.667-63.831,5.667c-46.039,0-79.134-8.914-99.286-26.414C392.904,701.87,382.834,673,382.834,633H578.96
		c0.613-6,0.92-11.959,0.92-17.728c0-37.977-11.203-67.668-33.609-89.245c-22.405-21.573-54.173-32.32-95.3-32.32
		c-47.065,0-85.867,14.09-116.253,42.225C321.725,547.965,312,561.523,304,576.555v-107.86c0-48.914,0.796-94.646,2.229-137.199
		l-3.642-2.385c-39.287,7.956-83.876,15.611-133.799,22.966l2.158,12.229l45.123,11.93c0.815,39.176,1.23,79.738,1.23,121.691
		c-15.96-2.187-30.69-3.283-44.196-3.283c-54.633,0-97.141,13.572-127.526,40.715C15.193,562.498,0,600.928,0,650.634
		c0,38.975,11.765,71.435,35.297,97.381c23.527,25.95,55.554,38.927,96.068,38.927c32.535,0,62.2-10.836,89.008-32.513
		c8.594,21.677,26.598,32.513,54.019,32.513c21.072,0,46.547-4.975,76.424-14.916l-1.757-12.522
		c29.641,18.292,66.271,27.438,109.893,27.438c28.286,0,55.64-4.269,82.068-12.771l0.569,5.313
		c29.667-0.598,59.744-0.896,90.235-0.896c29.873,0,59.951,0.299,90.236,0.896l-0.921-14.32l-38.367-10.438
		c-4.709-1.388-7.508-4.772-7.916-10.142c-0.413-9.343-0.857-25.845-0.857-49.51V526.362l36.534,9.143
		c-1.227,79.338-1.719,139.689-1.719,181.045c0,23.464,7.889,41.011,23.539,52.641c15.654,11.633,37.832,17.451,66.48,17.451
		c19.854,0,40.786-3.851,62.761-11.517c15.754,7.873,34.367,11.815,55.834,11.815c29.051,0,56.577-10.637,82.565-31.916
		c8.797,21.279,27.113,31.916,54.941,31.916c20.664,0,45.32-4.773,73.972-14.32l-1.842-13.718
		c-11.051-0.195-19.489-0.992-25.322-2.387c-5.828-1.389-10.232-3.728-13.197-7.009c-2.967-3.281-4.861-8.001-5.678-14.167
		c-0.817-6.161-1.026-14.317-0.612-24.458l1.533-124.076c0.202-30.022-8.853-53.039-27.162-69.047
		c-18.315-16.003-45.828-24.01-82.66-24.01c-29.152,0-58.968,5.073-89.968,15.16V504h-86.056c0-27,0.306-52.349,0.921-76.41
		l-4.3-1.967c-14.322,2.787-30.182,5.729-47.572,8.712l-29.398,70.122L674,508.271v-89.087c0-31.019,0.857-60.248,2.085-87.689
		l-3.254-2.385c-11.67,2.439-23.903,4.851-36.805,7.234c-0.685-8.416-2.491-16.038-5.482-22.865
		c12.534-0.104,25.15-0.167,37.864-0.167c29.873,0,57.094,0.297,81.648,0.895l-0.608-14.317l-30.69-9.544
		c-4.504-1.194-6.902-4.474-7.104-9.843c-0.41-20.677-0.652-43.443-0.652-68.301V83.951c17-9.545,33.802-14.318,49.764-14.318
		c18.416,0,32.117,5.322,41.429,15.958C811.502,96.229,816,113.776,816,138.233v124.97c0,9.545,0.076,15.808-0.127,18.792
		c-0.413,4.575-2.879,7.558-7.582,8.948l-28.807,8.946l1.249,14.317c23.325-0.598,50.347-0.895,81.04-0.895
		c29.668,0,56.581,0.297,80.729,0.895l-0.612-14.317l-30.691-9.544c-4.501-1.194-6.62-4.474-6.822-9.843
		c-0.412-12.721-0.376-31.512-0.376-56.37v-104.69c0-11.93-1.67-22.766-4.532-32.508c18.821-11.53,36.505-17.302,53.288-17.302
		c18.614,0,32.271,5.322,41.586,15.958c9.307,10.639,13.658,28.186,13.658,52.643v124.97c0,9.545,0.14,15.808-0.061,18.792
		c-0.412,4.575-2.843,7.558-7.548,8.948l-29.097,8.946l1.563,14.317c23.327-0.598,50.354-0.895,81.047-0.895
		c25.788,0,51.426,0.239,76.912,0.69c13.574,5.097,28.989,7.663,46.262,7.663c29.053,0,56.575-10.636,82.566-31.916
		c8.794,21.28,27.11,31.916,54.939,31.916c20.664,0,45.321-4.774,73.97-14.318L1386.713,293.625z M402.017,545.594
		c10.33-16.203,24.194-24.208,41.588-24.208c14.526,0,25.533,5.919,32.593,17.648C483.257,550.77,487,570.206,487,597.245V604
		H384.061C385.698,582,391.682,561.802,402.017,545.594z M217,735.34c-14,7.358-30.747,11.036-48.342,11.036
		c-23.739,0-42.079-9.844-55.172-29.528c-13.097-19.683-19.605-45.932-19.605-78.741c0-37.776,7.386-66.065,22.118-84.854
		c14.732-18.791,35.969-28.187,64.005-28.187c13.707,0,25.996,1.893,36.996,5.668V735.34z M323.807,756.813
		c-5.731-1.191-9.975-3.427-12.738-6.709c-2.762-3.281-4.556-8.001-5.371-14.167c-0.765-5.744-1.166-13.247-1.217-22.455
		c7.761,14.638,18.478,27.146,32.162,37.517c3.685,2.793,7.5,5.417,11.435,7.885C337.473,758.667,329.375,757.974,323.807,756.813z
		 M997.544,735.937c-11.254,7.559-24.453,11.334-39.594,11.334c-13.302,0-24.812-3.728-34.528-11.184
		c-9.721-7.458-14.578-19.933-14.578-37.433c0-19.285,6.852-32.907,20.564-40.861c13.705-7.951,36.624-11.932,68.75-11.932
		L997.544,735.937z M797.944,537h55.285l3.437,9.542c29.464-8.948,54.734-13.422,75.81-13.422c22.714,0,39.44,5.024,50.184,15.063
		c10.74,10.043,16.009,25.701,15.807,46.975l-0.308,22.369c-59.544,0-104.2,7.261-133.971,21.772
		c-29.773,14.519-44.659,37.387-44.659,68.602c0,15.132,3.383,28.201,10.101,39.235c-11.265-1.444-19.271-5.026-24.012-10.75
		c-6.345-7.653-9.515-21.521-9.515-41.607C796.103,651.633,796.717,599,797.944,537z M434.459,71.723
		c5.932-12.923,17.082-19.388,33.455-19.388c16.775,0,28.438,7.06,34.989,21.176c6.547,14.121,9.823,33.404,9.823,57.862
		c0,25.456-3.022,44.792-9.055,58.011c-6.038,13.227-17.24,19.833-33.608,19.833c-16.167,0-27.624-7.055-34.375-21.173
		c-6.753-14.118-10.128-34.102-10.128-59.952C425.559,103.438,428.522,84.649,434.459,71.723z M405.301,221.448
		c18.416,6.76,39.694,10.141,63.841,10.141c38.874,0,70.233-9.493,94.073-28.483c23.835-18.986,35.756-44.489,35.756-76.503
		c0-21.274-7.572-40.364-22.712-57.266l15.043-3.718l31.43,7.893c0.815,22.071,1.269,46.131,1.269,72.178v98.129
		c0,11.733-0.146,23.963-0.348,36.684c-0.206,4.774-2.581,7.756-7.08,8.949l-3.977,1.045c-1.318-1.028-2.677-2.032-4.104-2.985
		c-18.622-12.424-45.227-18.642-79.804-18.642c-14.53,0-30.693,0.15-48.494,0.448c-17.802,0.297-32.843,0.448-45.12,0.448
		c-16.985,0-28.189-0.896-33.607-2.685c-5.424-1.788-8.135-5.266-8.135-10.438C393.331,247.299,397.321,235.568,405.301,221.448z
		 M540.973,364.305l37.639,9.952c-1.126,18.244-12.342,32.876-33.66,43.893c-22.511,11.634-49.108,17.449-79.8,17.449
		c-25.581,0-45.785-4.428-60.617-13.272c-14.838-8.851-22.253-21.027-22.253-36.538c0-15.113,4.912-31.518,14.733-49.211
		c9.41,0.595,18.517,0.894,27.316,0.894c12.277,0,25.576-0.299,39.901-0.894c14.32-0.598,27.623-0.796,39.9-0.598
		c31.306,0,51.564,3.179,60.772,9.545c1.056,0.73,2.044,1.492,2.979,2.279c-9.344,1.435-18.924,2.859-28.75,4.272L540.973,364.305z
		 M1257.192,270.66c-11.257,7.56-24.455,11.335-39.595,11.335c-13.303,0-24.813-3.73-34.53-11.185
		c-9.722-7.458-14.577-19.934-14.577-37.433c0-19.283,6.854-32.909,20.563-40.862c13.707-7.95,36.624-11.931,68.752-11.931
		L1257.192,270.66z" class="CNDbaqQF_1"></path>
</g>
    <defs>
    <linearGradient id="1" x1="0%" y1="0%" x2="140%" y2="120%">
        <stop offset="0%" stop-color="lightblue" stop-opacity=".22">
            <animate attributeName="stop-color" values="lightblue;blue;red;red;black;red;red;purple;lightblue" dur="14s" repeatCount="indefinite"></animate>
        </stop>
        <stop offset="100%" stop-color="lightblue" stop-opacity=".22">
            <animate attributeName="stop-color" values="lightblue;orange;purple;purple;black;purple;purple;blue;lightblue" dur="14s" repeatCount="indefinite"></animate>
        <animate attributeName="offset" values=".95;.80;.60;.40;.20;0;.20;.40;.60;.80;.95" dur="14s" repeatCount="indefinite"></animate>    
        </stop>
    </linearGradient>
    
    </defs>
<style>.CNDbaqQF_0{stroke-dasharray:295 297;stroke-dashoffset:296;animation:CNDbaqQF_draw_0 6300ms linear 0ms infinite,CNDbaqQF_fade 6300ms linear 0ms infinite;}.CNDbaqQF_1{stroke-dasharray:16134 16136;stroke-dashoffset:16135;animation:CNDbaqQF_draw_1 6300ms linear 0ms infinite,CNDbaqQF_fade 6300ms linear 0ms infinite;}@keyframes CNDbaqQF_draw{100%{stroke-dashoffset:0;}}@keyframes CNDbaqQF_fade{0%{stroke-opacity:1;}93.65079365079364%{stroke-opacity:1;}100%{stroke-opacity:0;}}@keyframes CNDbaqQF_draw_0{12.698412698412698%{stroke-dashoffset: 296}39.15343915343915%{ stroke-dashoffset: 0;}100%{ stroke-dashoffset: 0;}}@keyframes CNDbaqQF_draw_1{25.92592592592593%{stroke-dashoffset: 16135}52.38095238095239%{ stroke-dashoffset: 0;}100%{ stroke-dashoffset: 0;}}</style></svg>
