<?xml version="1.0" encoding="utf-8"?>
<!-- Generator: Adobe Illustrator 16.0.0, SVG Export Plug-In . SVG Version: 6.00 Build 0)  -->
<!DOCTYPE svg PUBLIC "-//W3C//DTD SVG 1.1//EN" "http://www.w3.org/Graphics/SVG/1.1/DTD/svg11.dtd">
<svg version="1.1" id="Layer_1" xmlns="http://www.w3.org/2000/svg" xmlns:xlink="http://www.w3.org/1999/xlink" x="0px" y="0px"
	 width="558.652px" height="860.632px" viewBox="369.601 -53.301 558.652 860.632"
	 enable-background="new 369.601 -53.301 558.652 860.632" xml:space="preserve">
<g>
	
		<linearGradient id="SVGID_1_" gradientUnits="userSpaceOnUse" x1="-0.8899" y1="768.0369" x2="-0.0222" y2="767.2931" gradientTransform="matrix(-4.185846e-006 -95.761 -89.181 3.898225e-006 68865.8906 574.7131)">
		<stop  offset="0" style="stop-color:#ADD8E6;stop-opacity:0.2"/>
		<stop  offset="1" style="stop-color:#ADD8E6;stop-opacity:0.2"/>
	</linearGradient>
	<path fill="url(#1)" d="M417.389,649.869c4.992-5.391,7.487-12.271,7.487-20.643c0-9.131-2.648-16.518-7.949-22.162
		c-5.297-5.641-12.201-8.464-20.705-8.464s-15.066,2.661-19.687,7.989c-4.624,5.327-6.934,12.175-6.934,20.544
		c0,9.132,2.528,16.553,7.579,22.259c5.056,5.708,11.957,8.561,20.706,8.561C405.898,657.951,412.398,655.26,417.389,649.869z"/>
	
		<linearGradient id="url(#1)" gradientUnits="userSpaceOnUse" x1="0.448" y1="768.491" x2="1.3157" y2="767.7472" gradientTransform="matrix(-6.069563e-005 -1388.5541 -759.662 3.320588e-005 584272.0625 1463.0903)">
		<stop  offset="0" style="stop-color:#ADD8E6;stop-opacity:0.2"/>
		<stop  offset="1" style="stop-color:#ADD8E6;stop-opacity:0.2"/>
	</linearGradient>
	<path fill="url(#1)" d="M622.492-52.16c-0.119,6.847-0.614,12.08-1.476,15.694c-0.862,3.613-2.313,6.343-4.344,8.18
		c-2.035,1.84-4.959,3.014-8.782,3.521c-3.819,0.506-8.874,0.635-15.158,0.379l-76.903-0.95
		c-18.608-0.125-32.875,5.487-42.796,16.835c-9.919,11.354-14.881,28.44-14.881,51.267c0,24.987,5.978,50.985,17.931,77.999
		l14.79-5.329c-5.546-18.261-8.319-33.923-8.319-46.986c0-14.077,3.113-24.446,9.335-31.104c6.225-6.658,15.931-9.922,29.116-9.796
		l13.865,0.19c0,36.904,4.5,64.479,13.495,82.933c3.532,7.243,7.865,13.016,12.992,17.354h-46.822
		c-17.992,0-31.889,5.241-41.686,15.512c-9.799,10.274-14.696,24.404-14.696,42.286c0,22.448,8.133,45.489,24.402,69.081
		c-16.269,10.272-24.402,26.99-24.402,50.071c0,20.292,6.903,40.602,20.705,61.675h-19.784l-1.477,2.828
		c2.542,11.896,4.964,24.395,7.269,37.514l-1.539,0.185c0.37,16.742,0.556,35.508,0.556,56.306c0,5.964-0.862,14.396-2.589,25.3
		c-1.478,11.29-2.219,20.227-2.219,26.822c0,25.109,5.856,45.055,17.563,59.826c11.712,14.776,27.176,22.163,46.401,22.163
		c21.693,0,38.022-9.637,48.988-28.915c19.169,16.456,34.604,25.834,46.308,28.149c-1.113,1.151-2.681,1.762-4.714,1.913
		c-5.79,0.258-16.019,0.335-30.687,0.335H513.24c-19.225,0-37.341-0.335-54.349-1.095l-1.479,2.117
		c4.1,19.611,8.071,41.878,11.913,66.75c-0.707-0.166-1.406-0.32-2.116-0.486c-6.037,16.993-9.058,36.022-9.058,57.071
		c0,25.618,4.806,45.725,14.419,60.307c9.614,14.586,23.419,21.878,41.41,21.878c11.71,0,21.6-3.738,29.671-11.224
		c8.072-7.481,14.635-18.643,19.689-33.481l7.763-23.206c4.067-12.301,8.166-20.514,12.292-24.638
		c4.132-4.118,9.216-6.183,15.253-6.183c7.273,0,12.941,3.423,17.006,10.273c4.067,6.85,6.1,15.79,6.1,26.823
		c0,11.669-1.292,21.372-3.882,29.104l-40.299,13.698l1.479,9.702c15.528,2.792,31.552,6.342,48.066,10.652
		c8.504-20.545,12.756-41.472,12.756-62.777c0-25.489-5.023-46.064-15.068-61.73c-10.042-15.662-24.124-23.492-42.241-23.492
		c-11.461,0-21.473,4.184-30.04,12.556c-8.564,8.369-15.867,21.623-21.907,39.758l-10.352,30.438
		c-2.588,7.736-5.391,13.19-8.411,16.358c-3.019,3.174-7.303,4.758-12.848,4.758c-7.272,0-12.878-3.646-16.824-10.94
		c-3.942-7.292-5.916-16.705-5.916-28.248c0-9.257,0.923-17.881,2.773-25.871l35.493-11.416l-1.478-10.462
		c-9.911-1.83-20.239-3.938-30.965-6.308l3.975-15.904c13.559-0.504,28.408-0.858,44.551-0.858h59.526
		c11.34,0,19.41,0.226,24.215,0.479c2.959,0.255,4.808,1.889,5.548,4.808l6.469,24.182l8.874-0.938
		c-0.37-18.388-0.555-37.022-0.555-55.923c0-10.438,0.066-20.915,0.183-31.435c4.814-3.149,8.758-8.604,11.833-16.362
		c15.527,19.784,30.562,29.677,45.108,29.677c11.212,0,20.361-7.133,27.453-21.402c7.083-14.265,10.625-33.639,10.625-58.114
		c0-29.678-6.929-56.277-20.794-79.803c-0.981-1.665-1.987-3.164-3.014-4.71c3.968-0.03,8.017,0.049,12.155,0.049h160.275
		c11.342,0,19.414,0.029,24.219,0.28c2.959,0.258,4.807,1.791,5.548,4.706l0.147,0.532l-9.209,1.189
		c2.347,12.556,3.516,25.741,3.516,39.563c0,28.535-5.525,49.046-16.373,61.538c-10.842,12.492-28.737,18.733-53.528,18.733v-121.56
		c-3.721-0.381-7.412-0.57-10.988-0.57c-23.536,0-41.94,6.944-55.314,20.831c-13.371,13.888-20.032,33.577-20.032,59.068
		c0,29.169,8.735,53.22,26.172,72.052c7.459,8.054,15.861,14.082,25.179,19.041h-66.854c-30.317,0-58.661-0.494-85.037-1.381
		l-1.478,2.257c4.933,24.352,9.677,51.985,14.237,82.928l7.577-1.337l7.396-27.967c24.28-0.505,49.421-0.764,75.425-0.764
		c-1.357,9.895-2.038,19.023-2.038,27.395c0,33.863,8.415,60.209,25.238,79.04c16.821,18.832,40.641,28.249,71.45,28.249
		c24.154,0,44.273-7.292,60.355-21.876c16.084-14.583,24.126-34.433,24.126-59.543c0-20.164-6.715-38.554-20.149-55.169
		c13.435-5.328,20.149-16.484,20.149-33.48c0-13.061-3.082-28.851-9.243-47.369l-7.76,1.09c11.335-18.37,17.003-41.075,17.003-68.11
		c0-17.535-2.645-34.488-7.916-50.869l3.294-0.353c-0.369-18.389-0.554-37.03-0.554-55.928c0-18.514,0.187-37.158,0.554-55.929
		l-8.876,0.571l-6.468,23.781c-0.86,2.918-2.958,4.653-6.287,4.905c-5.791,0.257-16.02,0.532-30.688,0.532H766.744l5.668-22.645
		c49.174,0.761,86.58,1.065,112.212,1.065c14.543,0,25.422-4.889,32.629-14.589c7.207-9.702,10.813-23.448,10.813-41.204
		c0-12.306-2.385-25.28-7.138-38.901c4.879-9.764,7.324-21.301,7.324-34.605c0-18.006-6.591-35.066-19.781-51.174
		c13.19-5.453,19.781-16.805,19.781-34.054c0-12.807-2.958-28.09-8.876-45.848l-8.502,1.142c-0.121,6.85-0.617,12.08-1.48,15.695
		c-0.86,3.612-2.311,6.341-4.342,8.179c-2.035,1.84-4.962,3.014-8.783,3.52c-3.817,0.506-8.873,0.636-15.159,0.38l-76.903-0.951
		c-18.607-0.125-32.873,5.488-42.794,16.836c-9.921,11.352-14.884,28.405-14.884,51.233c0,18.068,3.146,36.548,9.396,55.763h-3.041
		v53.337c-16.735,0-32.444-0.189-47.357-0.571l-1.223,2.665c1.729,8.877,3.554,18.707,5.401,29.486l43.46,18.221l2.365,27.019
		h-55.215c-19.227,0-37.342-0.531-54.352-1.292l-1.478,2.018c1.511,7.232,3.007,14.814,4.484,22.812
		c-5.216,0.424-9.94,1.544-14.172,3.397c-0.064-7.769-0.104-15.589-0.104-23.469c0-18.515,0.185-35.387,0.555-50.605l-8.874,0.376
		l-5.914,19.022c-0.741,2.791-2.774,4.277-6.103,4.403c-12.814,0.254-26.924,0.404-42.333,0.404h-79.49
		c-5.916-10.536-8.875-20.95-8.875-30.843c0-11.415,3.298-19.907,9.891-25.678c6.593-5.769,17.47-8.557,32.628-8.557h77.457
		c5.916,0,9.798-0.046,11.646,0.079c2.836,0.256,4.685,1.785,5.547,4.698l5.544,17.856l8.873-0.774
		c-0.371-14.458-0.553-31.206-0.553-50.229c0-18.388,0.183-35.07,0.553-50.036l-8.873,0.379l-5.916,19.023
		c-0.739,2.79-2.773,4.104-6.101,4.228c-7.884,0.256-19.531,0.234-34.939,0.234h-64.887c-7.394,0-14.11,1.035-20.148,2.808
		c-7.146-11.665-10.725-22.625-10.725-33.029c0-11.536,3.299-20,9.891-25.774c6.594-5.768,17.471-8.466,32.629-8.466h77.457
		c5.916,0,9.798-0.086,11.646,0.039c2.836,0.255,4.685,1.761,5.547,4.678l5.544,18.035l8.873-0.969
		c-0.371-14.458-0.553-31.209-0.553-50.232c0-15.983,0.148-31.875,0.428-47.671c3.16-8.414,4.749-17.967,4.749-28.674
		c0-18.007-6.591-35.065-19.782-51.174c13.191-5.45,19.782-16.804,19.782-34.052c0-12.807-2.959-28.089-8.875-45.846L622.492-52.16z
		 M778.666,558.16c-10.042-6.403-15.006-14.997-15.006-25.775c0-9.005,3.67-15.826,10.94-20.202
		c7.271-4.375,19.319-6.695,36.078-6.695h4.186v63.802C801.231,568.274,788.711,564.565,778.666,558.16z M896.272,672.834
		c4.561,8.676,6.841,19.058,6.841,29.961c0,14.715-6.102,26.084-18.3,34.199c-12.202,8.116-28.475,12.15-48.807,12.15
		c-23.414,0-40.949-4.577-52.594-13.708c-11.646-9.133-17.471-22.296-17.471-39.673c0-8.494,1.175-16.111,3.512-22.93H896.272z
		 M909.581,606.635c-0.738,3.551-2.125,6.183-4.16,7.895c-2.033,1.711-4.96,2.823-8.779,3.328
		c-3.562,0.476-8.211,0.724-13.917,0.757c9.069-4.813,16.824-11.454,23.251-19.937c1.732-2.284,3.358-4.647,4.887-7.088
		C910.73,598.165,910.298,603.183,909.581,606.635z M896.642,189.049c4.684,6.975,7.023,15.155,7.023,24.541
		c0,8.245-2.31,15.378-6.931,21.4c-4.623,6.025-12.355,9.036-23.203,9.036c-11.952,0-20.395-4.247-25.325-12.746
		c-4.929-8.495-7.395-22.701-7.395-42.612L896.642,189.049z M773.337,312.761v-34.266l5.915-2.131
		c-5.547-18.261-8.319-33.924-8.319-46.987c0-14.079,3.113-24.445,9.337-31.104c6.227-6.657,15.93-9.922,29.112-9.797l13.869,0.191
		c0,36.905,4.499,64.583,13.494,83.035c8.996,18.456,23.171,27.681,42.518,27.681c9.38,0,17.481-2.096,24.32-6.261
		c-0.896,6.982-3.114,11.944-6.662,14.883c-4.743,3.933-13.342,5.897-25.791,5.897C844.39,313.903,811.767,313.522,773.337,312.761z
		 M484.958,538.052c-8.01-3.677-12.017-10.588-12.017-20.734c0-10.399,4.375-17.627,13.125-21.688
		c8.752-4.056,20.704-6.087,35.863-6.087c15.777,0,27.762,1.874,35.955,5.612c8.198,3.74,12.292,10.686,12.292,20.83
		c0,10.02-4.373,17.121-13.123,21.305c-8.75,4.188-21.137,6.278-37.158,6.278C504.615,543.567,492.969,541.731,484.958,538.052z
		 M577.758,556.123c4.19-11.413,6.284-24.6,6.284-39.565c0-24.097-5.882-43.532-17.653-58.31
		c-11.768-14.773-27.574-22.161-47.416-22.161c-13.187,0-25.019,4.693-35.495,14.077l-2.304-9.323l4.892-19.48
		c13.68-0.507,28.592-0.787,44.737-0.787h60.82c7.273,0,14.853,0.09,22.736,0.215c2.959,0.13,4.808,1.601,5.548,4.389l0.647,2.464
		c-0.637,0.818-1.26,1.661-1.851,2.545c-7.7,11.542-11.554,28.03-11.554,49.462c0,9.006,0.093,19.025,0.278,30.059
		c0.184,11.03,0.278,20.356,0.278,27.966c0,10.527-0.556,17.472-1.665,20.828c-1.108,3.362-3.263,5.043-6.469,5.043
		C593.78,563.543,586.509,561.07,577.758,556.123z M666.301,472.034l6.168-23.329c11.308,0.699,20.377,7.649,27.206,20.863
		c7.212,13.953,10.814,30.438,10.814,49.46c0,15.854-2.743,28.377-8.225,37.569c-5.488,9.199-13.033,13.794-22.649,13.794
		c-9.365,0-19.533-3.044-30.499-9.132c0.368-5.831,0.554-11.478,0.554-16.932c0-7.606-0.186-15.852-0.554-24.729
		c-0.371-8.875-0.494-17.12-0.371-24.729c0-19.405,1.97-31.96,5.916-37.667c0.453-0.655,0.924-1.269,1.413-1.848
		c0.889,5.792,1.772,11.729,2.646,17.819L666.301,472.034z M608.26,28.117c4.686,6.977,7.024,15.158,7.024,24.541
		c0,8.246-2.311,15.38-6.932,21.403c-4.623,6.026-12.355,9.035-23.201,9.035c-11.951,0-20.397-4.249-25.327-12.746
		c-4.927-8.496-7.395-22.7-7.395-42.613L608.26,28.117z"/>
</g>
<defs>
	 <linearGradient id="1" x1="0%" y1="0%" x2="140%" y2="120%">
        <stop offset="0%" stop-color="lightblue" stop-opacity=".2">
            <animate attributeName="stop-color" values="lightblue;blue;red;red;black;red;red;purple;lightblue" dur="10s" repeatCount="indefinite" />
        </stop>
        <stop offset="100%" stop-color="lightblue" stop-opacity=".2">
            <animate attributeName="stop-color" values="lightblue;orange;purple;purple;black;purple;purple;blue;lightblue" dur="10s" repeatCount="indefinite" />
        <animate attributeName="offset" values=".95;.80;.60;.40;.20;0;.20;.40;.60;.80;.95" dur="14s" repeatCount="indefinite" />    
        </stop>
    </linearGradient>
	<stroke  stroke="black" stroke-width="3" id="2"></stroke>
</defs>
</svg>
